<svg width="548.176" height="548.176" xmlns="http://www.w3.org/2000/svg">
 <g>
  <title>background</title>
  <rect x="-1" y="-1" width="550.176" height="550.176" id="canvas_background" fill="none"/>
 </g>

 <g>
  <title>Layer 1</title>
  <g id="svg_3"/>
  <g id="svg_4"/>
  <g id="svg_5"/>
  <g id="svg_6"/>
  <g id="svg_7"/>
  <g id="svg_8"/>
  <g id="svg_9"/>
  <g id="svg_10"/>
  <g id="svg_11"/>
  <g id="svg_12"/>
  <g id="svg_13"/>
  <g id="svg_14"/>
  <g id="svg_15"/>
  <g id="svg_16"/>
  <g id="svg_17"/>
  <ellipse fill="none" stroke-width="1.5" cx="274.088005" cy="274.08799" id="svg_23" rx="271" ry="271"/>
  <g id="svg_1" fill="none" stroke-width="0">
   <path d="m444.17587,199.72161c-20.99887,-20.54169 -46.33418,-30.81361 -76.01473,-30.81361l-188.147,0c-29.67614,0 -55.01953,10.2712 -76.01473,30.81361c-21.00034,20.54241 -31.49941,45.33073 -31.49941,74.36496c0,29.03782 10.50201,53.82398 31.49941,74.36495c20.9952,20.54097 46.33565,30.81649 76.01473,30.81649c26.87983,0 50.53381,-8.76884 70.97518,-26.29788l46.19664,0c20.4399,17.52904 44.09388,26.29788 70.97518,26.29788c29.67541,0 55.01586,-10.27049 76.01473,-30.81649c20.99961,-20.54529 31.50015,-45.32641 31.50015,-74.36495c0,-29.03423 -10.50128,-53.82255 -31.50015,-74.36496zm-196.96768,87.51353c0,1.91826 -0.62811,3.49401 -1.88873,4.72224c-1.25989,1.23398 -2.8684,1.84918 -4.82994,1.84918l-40.3179,0l0,39.44358c0,1.91825 -0.6281,3.49401 -1.88873,4.72295c-1.25989,1.23327 -2.86766,1.84846 -4.82994,1.84846l-26.87835,0c-1.95934,0 -3.57005,-0.61519 -4.82994,-1.84846c-1.25842,-1.22894 -1.88652,-2.8047 -1.88652,-4.72295l0,-39.44358l-40.32158,0c-1.95933,0 -3.57005,-0.6152 -4.82994,-1.84918c-1.25841,-1.22823 -1.88652,-2.80399 -1.88652,-4.72224l0,-26.295c0,-1.91681 0.6281,-3.49257 1.88652,-4.72511c1.25989,-1.23326 2.87061,-1.84774 4.82994,-1.84774l40.32011,0l0,-39.44286c0,-1.91681 0.6281,-3.49257 1.88652,-4.72511c1.25915,-1.23399 2.8706,-1.84774 4.82994,-1.84774l26.87835,0c1.96154,0 3.57005,0.61447 4.82994,1.84774c1.26062,1.23254 1.88873,2.8083 1.88873,4.72511l0,39.44286l40.3179,0c1.96154,0 3.57005,0.61448 4.82994,1.84774c1.26062,1.23254 1.88872,2.8083 1.88872,4.72511l0,26.295l0.00148,0zm113.0803,31.73748c-5.25064,5.13669 -11.58612,7.70683 -19.00865,7.70683c-7.41443,0 -13.75212,-2.57014 -19.00055,-7.70683c-5.25064,-5.13164 -7.87486,-11.33178 -7.87486,-18.59033c0,-7.25928 2.62422,-13.45654 7.87486,-18.59106c5.24843,-5.13165 11.58612,-7.70466 19.00055,-7.70466c7.42253,0 13.75801,2.57301 19.00865,7.70466c5.24549,5.13452 7.87265,11.33178 7.87265,18.59106c0,7.25855 -2.62716,13.45869 -7.87265,18.59033zm53.75156,-52.58928c-5.24476,5.1338 -11.58244,7.70322 -19.00277,7.70322s-13.75506,-2.56654 -19.00276,-7.70322c-5.25064,-5.1374 -7.87559,-11.3325 -7.87559,-18.59322c0,-7.25639 2.62495,-13.45365 7.87559,-18.5889c5.2477,-5.13668 11.58244,-7.70394 19.00276,-7.70394s13.75801,2.56726 19.00277,7.70394c5.25064,5.13525 7.87853,11.33251 7.87853,18.5889c0,7.26 -2.62495,13.45798 -7.87853,18.59322z" id="svg_2" stroke="#fcd0a1" stroke-width="0" fill="#ffba49"/>
  </g>
  <ellipse fill="#ff6666" stroke="#ff6666" stroke-width="1.5" stroke-opacity="null" fill-opacity="null" cx="2.588013" cy="246.587997" id="svg_24"/>
  <ellipse fill="#033032" stroke-width="1.5" cx="343.088012" cy="300.588" id="svg_35" rx="29.499999" ry="30.000001" stroke="#033032"/>
  <ellipse fill="#033032" stroke-width="1.5" cx="395.609435" cy="248.066576" id="svg_36" rx="29.499999" ry="30.000001" stroke="#033032"/>
  <rect stroke="#033032" fill="#033032" stroke-width="1.5" x="160.612403" y="208.124583" width="40.1777" height="143.336659" id="svg_37" rx="5"/>
  <rect fill="#033032" stroke-width="1.5" x="160.440693" y="205.582009" width="38.463414" height="137.220829" id="svg_38" rx="5" stroke="#033032" transform="rotate(-90 179.67240905761727,274.1924438476563) "/>
 </g>
</svg>